<?xml version="1.0" standalone="no"?><!DOCTYPE svg PUBLIC "-//W3C//DTD SVG 1.1//EN" "http://www.w3.org/Graphics/SVG/1.1/DTD/svg11.dtd"><svg t="1754110826185" class="icon" viewBox="0 0 1024 1024" version="1.1" xmlns="http://www.w3.org/2000/svg" p-id="1713" xmlns:xlink="http://www.w3.org/1999/xlink" width="200" height="200"><path d="M213.511841 652.83189a16.040492 16.040492 0 0 1-9.471145-3.087191c-51.490784-37.46543-81.024634-93.216214-81.024634-152.961 0-38.182819 12.026338-74.882496 34.869933-106.68539a137.057538 137.057538 0 0 1-6.750709-42.523424c0-82.785864 74.245713-150.143838 165.543516-150.216383 32.786281-103.473262 136.549723-174.647906 257.147621-174.647906 145.017329 0 263.46306 104.682344 267.513486 234.735265 83.354133 39.742535 136.65048 118.961606 136.678692 204.528359 0 64.379601-30.045695 126.324917-82.42717 169.960697a16.121097 16.121097 0 0 1-20.639035-24.774096c45.671068-38.041759 70.82401-89.605088 70.82401-145.18257-0.024182-75.942458-49.830311-146.327169-126.893186-179.310934a16.121097 16.121097 0 0 1-9.777445-14.819318c0-0.814115 0.028212-1.62017 0.064484-2.430256 0.016121-0.366755 0.036272-0.73351 0.036273-1.104295 0-115.443177-105.589156-209.360658-235.376079-209.360658-108.926223 0-205.447262 68.538845-229.503969 162.976232a16.113037 16.113037 0 0 1-16.74579 12.102913 152.046128 152.046128 0 0 0-10.744711-0.427209c-73.588778 0-133.454472 52.921532-133.454473 117.974189 0 13.440965 2.559224 26.652204 7.601098 39.266962a16.125127 16.125127 0 0 1-2.317408 15.976008c-21.852147 27.671863-33.406944 60.167965-33.406944 93.965845 0 49.310406 24.693491 95.557803 67.752941 126.889155a16.121097 16.121097 0 0 1-9.499356 29.155005z" fill="#6E6E96" p-id="1714"></path><path d="M788.450619 403.668242c0-28.973642-23.710104-52.687776-52.691806-52.687775H366.537325c-28.973642 0-52.687776 23.710104-52.687775 52.687775v551.534976c0 28.969612 23.710104 52.675685 52.687775 52.675685h369.221488c28.973642 0 52.691806-23.698013 52.691806-52.675685V403.668242z" fill="#DDDDEB" p-id="1715"></path><path d="M724.631226 336.987354H355.413768c-28.977672 0-52.683745 23.706073-52.683745 52.687776v551.530945c0 28.977672 23.702043 52.679715 52.683745 52.679716h369.217458c28.973642 0 52.687776-23.702043 52.687776-52.679716V389.67513c0.008061-28.981702-23.698013-52.687776-52.687776-52.687776z m35.160113 584.688012c0 27.107625-22.18263 49.286224-49.286224 49.286224H359.125651c-27.111655 0-49.282194-22.18263-49.282194-49.286224V389.582434c0-27.103595 22.170539-49.282194 49.282194-49.282194h351.375433c27.111655 0 49.286224 22.178599 49.286225 49.282194l0.00403 532.092932z" fill="#6E6E96" opacity=".15" p-id="1716"></path><path d="M345.898291 986.171846V434.661052c0-39.770747 12.917029-52.687776 52.683745-52.687776h369.217458c7.185979 0 14.021324 1.458959 20.28437 4.090728-7.983973-18.990652-26.793263-32.419526-48.613168-32.419526l-369.229549 2.885676c-13.577994 0-52.675685 20.820397-52.675685 49.798069v551.522885c0 21.811844 13.420813 40.621135 32.415497 48.601078a52.272658 52.272658 0 0 1-4.082668-20.28034z" fill="#FFFFFF" opacity=".54" p-id="1717"></path><path d="M699.429921 674.538947c0-25.12473 16.661154-46.348154 39.536991-53.264105v-175.88117c-0.270028 0-0.527966 0.040303-0.777843 0.040303-23.931769 0-43.353661-19.228439-43.712355-43.071542h-288.200884c-0.358694 23.843103-19.776556 43.071541-43.708325 43.071542-2.772829 0-5.469082-0.29018-8.100851-0.781873v179.254509c19.240529 8.761816 32.657313 28.119224 32.657312 50.636366s-13.412753 41.87052-32.657312 50.628306v180.604651a44.304805 44.304805 0 0 1 8.100851-0.785903c24.157464 0 43.744597 19.587133 43.744597 43.744597 0 2.075591-0.193453 4.094759-0.475572 6.077653h289.083514a44.2242 44.2242 0 0 1-0.467512-6.077653c0-24.149404 19.579072-43.744597 43.740567-43.744597 0.253907 0 0.527966 0.048363 0.785903 0.048363v-177.239372c-22.887928-6.915951-39.549082-28.135345-39.549081-53.260075z" fill="#EBEBFA" p-id="1718"></path><path d="M735.758813 1024H366.537325c-37.941002 0-68.808873-30.85981-68.808873-68.796782V403.668242c0-37.941002 30.867871-68.808873 68.808873-68.808873h369.221488c37.945032 0 68.812903 30.867871 68.812903 68.808873v551.534976c0 37.936972-30.867871 68.796782-68.812903 68.796782zM366.537325 367.101564c-20.163462 0-36.566679 16.403216-36.566678 36.566678v551.534976c0 20.155402 16.403216 36.554588 36.566678 36.554588h369.221488c20.167493 0 36.570709-16.399186 36.570709-36.554588V403.668242c0-20.163462-16.403216-36.566679-36.570709-36.566678H366.537325z" fill="#6E6E96" p-id="1719"></path><path d="M359.210287 388.740106c-6.456499 0-11.683765 5.227266-11.683766 11.683766s5.227266 11.683765 11.683766 11.683765 11.683765-5.227266 11.683765-11.683765-5.235326-11.683765-11.683765-11.683766z m377.725366 0c-6.46456 0-11.683765 5.227266-11.683765 11.683766a11.679735 11.679735 0 1 0 23.35947 0 11.667644 11.667644 0 0 0-11.675705-11.683766zM359.210287 939.521421a11.687795 11.687795 0 1 0 0.00806 23.375591 11.687795 11.687795 0 0 0-0.00806-23.375591z m377.725366 0a11.683765 11.683765 0 1 0 0 23.36753 11.683765 11.683765 0 0 0 0-23.36753z" fill="#6E6E96" p-id="1720"></path><path d="M707.35747 705.104547s-0.777843-60.583083 38.34806-60.583083v-24.282403s-76.69612 9.209177-38.34806 84.865486zM381.654884 705.104547s0.693207-60.583083-34.450784-60.583083v-24.282403s68.901569 9.209177 34.450784 84.865486z" fill="#6E6E96" opacity=".15" p-id="1721"></path><path d="M371.627562 856.304317l337.539502-330.031101v-79.331919l-336.608509 329.821527z" fill="#FFFFFF" opacity=".44" p-id="1722"></path><path d="M734.138643 468.946595c-5.332053 0-10.406168-1.051902-15.069196-2.921949a40.584862 40.584862 0 0 0 15.794645 19.059167v-16.177521c-0.241816 0.00403-0.483633 0.040303-0.725449 0.040303z m0.721419 270.552313v-8.536121a52.812714 52.812714 0 0 1-8.499848-3.457975 51.418239 51.418239 0 0 0 8.499848 11.994096z m-332.126843-81.351087a51.204635 51.204635 0 0 1 5.634323 23.395743c0 20.905033-12.441457 38.863935-30.295572 46.976877v167.594926a41.568249 41.568249 0 0 1 7.512432-0.721419c5.307871 0 10.369896 1.051902 15.024862 2.909858v-147.246072c17.854115-8.125033 30.299602-26.083935 30.299602-46.976877-0.00403-20.058675-11.474191-37.384824-28.175647-45.933036z m23.411863-229.165426c-0.330482 22.126206-18.345809 39.96823-40.55262 39.96823-2.571315 0-5.082176-0.265998-7.512431-0.725449v166.33748a51.8656 51.8656 0 0 1 22.537294 19.841041v-163.649288c2.434286 0.455421 4.945147 0.725449 7.508401 0.725449 22.206811 0 40.218107-17.837994 40.55262-39.96823h252.142019a40.536499 40.536499 0 0 1-7.246433-22.537293h-267.42885v0.00806z m-2.901797 491.878856c1.874078 4.667058 2.93807 9.765355 2.938069 15.121589 0 1.91438-0.185393 3.780397-0.439299 5.626263h19.244559a40.677558 40.677558 0 0 0-21.743329-20.747852z" fill="#FFFFFF" opacity=".75" p-id="1723"></path><path d="M684.751662 428.184401a40.488135 40.488135 0 0 1-4.421211-17.741268h-13.360359a40.564711 40.564711 0 0 0 17.78157 17.741268z m-319.927203 183.429873v4.421211c1.777351 0.806055 3.482157 1.745109 5.14666 2.732526a51.587511 51.587511 0 0 0-5.14666-7.153737z m338.946067 247.446751c-0.245847-0.016121-0.471542-0.048363-0.717389-0.048363-22.416386 0-40.596953 18.176537-40.596952 40.588892 0 1.930501 0.189423 3.788458 0.439299 5.638354h-251.835719c1.213113 3.848912 1.878108 7.947701 1.878108 12.191579 0 1.930501-0.189423 3.792488-0.4393 5.634324h268.238936a41.741551 41.741551 0 0 1-0.423179-5.634324c0-22.416386 18.172507-40.584862 40.580832-40.584862 0.249877 0 0.487663 0.040303 0.73351 0.044333V712.431586a51.4263 51.4263 0 0 1-17.846055-9.571902v156.205371h-0.012091v-0.00403z m-338.946067 1.32999v17.19315c2.438316-0.451391 4.953207-0.725449 7.512431-0.725449 6.601589 0 12.824333 1.62017 18.333718 4.417181a40.625165 40.625165 0 0 0-25.846149-20.884882z m356.066672-409.975621c-6.126017 0-11.917521-1.398505-17.124635-3.828761v149.160452c-21.219394 6.416197-36.679526 26.112147-36.679526 49.423253 0 18.849593 10.103898 35.317294 25.193244 44.324957a51.252998 51.252998 0 0 1-7.35525-26.482933c0-23.307076 15.456102-43.011087 36.687587-49.423253v-163.209988c-0.245847 0.00403-0.483633 0.036272-0.72142 0.036273z" fill="#6E6E96" opacity=".15" p-id="1724"></path><path d="M469.277077 520.171381h155.858768v45.074588h-155.858768z" fill="#BFF2FF" p-id="1725"></path><path d="M625.135845 581.367066h-155.858768a16.121097 16.121097 0 0 1-16.121097-16.121097v-45.074588a16.121097 16.121097 0 0 1 16.121097-16.121097h155.858768a16.121097 16.121097 0 0 1 16.121097 16.121097v45.074588a16.121097 16.121097 0 0 1-16.121097 16.121097z m-139.73767-32.242194h123.616572v-12.832394h-123.616572v12.832394z" fill="#6E6E96" p-id="1726"></path><path d="M587.577719 612.738721h-118.304672a8.060549 8.060549 0 0 1 0-16.121097h118.304672a8.060549 8.060549 0 0 1 0 16.121097zM549.080539 650.292817h-79.803462a8.060549 8.060549 0 0 1 0-16.121097h79.803462a8.060549 8.060549 0 0 1 0 16.121097zM591.801446 685.972835h-122.524369a8.060549 8.060549 0 0 1 0-16.121097h122.524369a8.060549 8.060549 0 0 1 0 16.121097z" fill="#6E6E96" opacity=".35" p-id="1727"></path><path d="M393.923039 886.575707l334.492615-334.484554v44.131504L409.411383 915.214836z" fill="#FFFFFF" opacity=".2" p-id="1728"></path><path d="M687.621217 951.285791a0.265998 0.265998 0 0 1-0.080605 0h-268.246996a16.121097 16.121097 0 0 1-15.963917-18.37402c0.193453-1.370293 0.282119-2.442346 0.282119-3.385431a24.496007 24.496007 0 0 0-24.467795-24.471825c-1.406566 0-2.901797 0.14912-4.570331 0.459451a16.181551 16.181551 0 0 1-13.251542-3.449915 16.129158 16.129158 0 0 1-5.815685-12.397123v-167.594926a16.121097 16.121097 0 0 1 9.442932-14.674229 35.607473 35.607473 0 0 0 20.852639-32.310709c0-13.856083-8.189517-26.539356-20.860699-32.310709a16.129158 16.129158 0 0 1-9.438903-14.674228v-166.333451a16.121097 16.121097 0 0 1 19.079319-15.847038 24.745884 24.745884 0 0 0 4.55824 0.451391c13.275724 0 24.23807-10.805165 24.435553-24.08895a16.121097 16.121097 0 0 1 16.121097-15.87928h267.42885a16.121097 16.121097 0 0 1 16.121098 15.87525c0.201514 13.158846 10.958316 23.887436 24.056707 24.088949a16.121097 16.121097 0 0 1 17.225392 16.088855v163.209988a16.121097 16.121097 0 0 1-11.45807 15.43192c-14.855591 4.485695-25.225487 18.462687-25.225486 33.983273a35.321324 35.321324 0 0 0 25.241607 34.003424 16.121097 16.121097 0 0 1 11.45404 15.43192v164.467433a16.121097 16.121097 0 0 1-17.330179 16.072734 24.496007 24.496007 0 0 0-23.984163 24.467795c0 0.616632 0.036272 1.301779 0.112848 2.067531a16.109006 16.109006 0 0 1-15.71807 19.69192z m-252.73447-32.242194h237.076855c3.977881-21.223424 19.816859-38.311787 40.343045-44.107322v-139.59661c-22.359962-11.437918-36.691617-34.354058-36.691617-60.252601 0-25.894512 14.331655-48.802591 36.683557-60.232449v-138.383498a57.254077 57.254077 0 0 1-38.738997-37.816064h-240.268832c-6.367833 20.413339-24.044616 35.982289-45.530008 39.307266v140.725087c18.688382 12.437426 30.299602 33.580245 30.299602 56.407719 0 22.835534-11.61122 43.978353-30.299602 56.411749v141.966412c23.758467 3.627247 42.716877 22.065752 47.125997 45.570311z" fill="#6E6E96" p-id="1729"></path></svg>